   <svg
          viewBox="0 0 100 15"
          xmlns="http://www.w3.org/2000/svg"
          xmlns:xlink="http://www.w3.org/1999/xlink"
          width="100.000000"
          height="15.000000"
          fill="none"
        >
          <rect
            id="wildberries-horizontal-logo 1"
            width="100.000000"
            height="15.000000"
            x="0.000000"
            y="0.000000"
          />
          <path
            id="Vector 9"
            d="M93.4 7.65564C93.4 7.0428 94.26 6.55642 95.38 6.55642C96.55 6.55642 97.74 7.09144 98.55 7.97665L100.01 6.24514C98.62 5.04864 97.21 4.42607 95.46 4.42607C93.27 4.42607 91 5.40856 91 7.66537C91 10.4377 93.46 10.6323 95.46 10.7977C96.58 10.8755 97.57 10.963 97.57 11.6732C97.57 12.4514 96.44 12.8016 95.44 12.8016C94.28 12.8016 93.03 12.3249 92.11 11.2549L90.56 12.8599C91.8 14.3385 93.6 14.9805 95.35 14.9805C97.56 14.9805 99.98 13.9591 99.98 11.6245C99.98 8.98833 97.5 8.72568 95.59 8.54086C94.39 8.42412 93.4 8.31712 93.4 7.65564ZM82.31 8.31712C82.71 7.34436 83.56 6.78016 84.83 6.78016C86.11 6.78016 86.87 7.37354 87.19 8.31712L82.31 8.31712ZM84.95 4.42607C81.94 4.42607 79.52 6.71206 79.52 9.7179C79.52 12.5486 81.66 14.9805 84.82 14.9805C86.72 14.9805 88.27 14.0856 89.36 12.5681L87.7 11.1868C87.11 12.0623 86.05 12.5778 84.78 12.5778C83.49 12.5778 82.15 11.644 82.05 10.2529L89.92 10.2529L89.92 9.4358C89.89 6.54669 87.87 4.42607 84.95 4.42607ZM54.13 4.42607C51.12 4.42607 48.7 6.71206 48.7 9.70817C48.7 12.5389 50.84 14.9708 54 14.9708C55.9 14.9708 57.45 14.0759 58.54 12.5584L56.88 11.1868C56.29 12.0623 55.23 12.5778 53.96 12.5778C52.67 12.5778 51.33 11.644 51.23 10.2529L59.1 10.2529L59.1 9.4358C59.08 6.54669 57.05 4.42607 54.13 4.42607ZM75.88 14.6109L78.29 14.6109L78.29 4.78599L75.88 4.78599L75.88 14.6109ZM77.08 0C76.1 0 75.27 0.797665 75.27 1.78988C75.27 2.77237 76.08 3.50195 77.13 3.50195C78.15 3.50195 78.9 2.80156 78.9 1.82879C78.89 0.836576 78.07 0 77.08 0ZM42.16 4.40661C41.03 4.40661 40 4.73735 39.14 5.31128L39.14 0.116732L36.73 0.116732L36.73 9.70817C36.73 12.6265 39.18 14.9708 42.15 14.9708C45.15 14.9708 47.61 12.6362 47.61 9.67899C47.59 6.74125 45.18 4.40661 42.16 4.40661ZM29.63 4.57198C26.94 4.84436 24.75 7.09144 24.75 9.77626C24.75 12.6167 27.24 14.9903 30.16 14.9903C33.06 14.9903 35.57 12.607 35.57 9.77627C35.57 8.57004 35.12 7.45136 34.4 6.57588L29.05 0.126459L25.93 0.126459L29.63 4.57198ZM10.95 10.3794L8.75 4.78599L7.06 4.78599L4.84 10.3794L2.63 4.78599L0 4.78599L3.88 14.6401L5.57 14.6401L7.9 8.77432L10.25 14.6401L11.94 14.6401L15.8 4.78599L13.19 4.78599C13.18 4.78599 10.95 10.3794 10.95 10.3794ZM62.77 7.02335L62.77 4.78599L60.36 4.78599L60.36 14.6109L62.77 14.6109L62.77 10.4572C62.77 8.44358 64.99 7.20817 67.19 7.20817L67.19 4.77626L66.95 4.77626C65.08 4.78599 63.73 5.43774 62.77 7.02335ZM70.42 7.02335L70.42 4.78599L68.01 4.78599L68.01 14.6109L70.42 14.6109L70.42 10.4572C70.42 8.44358 72.64 7.20817 74.84 7.20817L74.84 4.77626L74.6 4.77626C72.75 4.78599 71.4 5.43774 70.42 7.02335ZM21.1 14.6109L23.51 14.6109L23.51 0.126459L21.1 0.126459L21.1 14.6109ZM30.17 12.6265C28.51 12.6265 27.16 11.323 27.16 9.70817C27.16 8.07393 28.51 6.78016 30.16 6.78016C31.83 6.78016 33.2 8.08366 33.2 9.70817C33.19 11.3327 31.83 12.6265 30.17 12.6265ZM42.14 12.6265C40.48 12.6265 39.13 11.323 39.13 9.70817L39.13 9.69844C39.13 8.09338 40.42 6.78016 42.15 6.78016C43.88 6.78016 45.17 8.09338 45.17 9.68872C45.18 11.3521 43.81 12.6265 42.14 12.6265ZM16.92 14.6109L19.33 14.6109L19.33 4.78599L16.92 4.78599L16.92 14.6109ZM18.1 0C17.12 0 16.3 0.797665 16.3 1.80934C16.3 2.83074 17.16 3.5214 18.1 3.5214C19.15 3.5214 19.94 2.6751 19.94 1.7607C19.93 0.836576 19.1 0 18.1 0ZM51.49 8.31712C51.9 7.34436 52.74 6.78016 54 6.78016C55.29 6.78016 56.07 7.37354 56.4 8.31712L51.49 8.31712Z"
            fill="rgb(255,255,255)"
            fill-rule="nonzero"
          />
        </svg>
